<svg xmlns="http://www.w3.org/2000/svg" viewBox="0 0 832.0 240.0" width="832" height="240"><defs>
<linearGradient id="brandGrad" x1="0" y1="0" x2="1" y2="1">
<stop offset="0" stop-color="#6C5CE7"></stop><stop offset="1" stop-color="#FF6B6B"></stop></linearGradient>
<linearGradient id="adminGrad" x1="0" y1="0" x2="1" y2="1">
<stop offset="0" stop-color="#6C5CE7"></stop><stop offset="1" stop-color="#8B7EEE"></stop></linearGradient>
</defs>
<rect x="40" y="40" width="160" height="160" rx="37.599999999999994" ry="37.599999999999994" fill="#6C5CE7"></rect>
<g transform="translate(244,158.4) scale(0.05583892617449664,-0.05583892617449664)" fill="#2D3748"><path transform="translate(0,0)" d="M115 0V1118H436L452 896Q498 1022 585.5 1077.5Q673 1133 774 1133Q880 1133 950.5 1072.0Q1021 1011 1062 874Q1113 1012 1212.5 1072.5Q1312 1133 1425 1133Q1582 1133 1682.5 1032.0Q1783 931 1783 754V0H1434V675Q1434 760 1390.0 804.0Q1346 848 1277 848Q1203 848 1160.0 799.5Q1117 751 1117 671V0H782V680Q782 757 738.5 802.5Q695 848 626 848Q555 848 509.5 800.0Q464 752 464 664V0Z"></path><path transform="translate(1899,0)" d="M634 -21Q459 -21 333.0 51.5Q207 124 139.5 253.5Q72 383 72 555Q72 727 139.5 857.0Q207 987 333.0 1059.5Q459 1132 634 1132Q809 1132 934.5 1059.5Q1060 987 1127.5 857.0Q1195 727 1195 555Q1195 383 1127.5 253.5Q1060 124 934.5 51.5Q809 -21 634 -21ZM634 246Q734 246 787.0 331.5Q840 417 840 557Q840 697 787.0 781.0Q734 865 634 865Q534 865 481.0 781.0Q428 697 428 557Q428 417 481.0 331.5Q534 246 634 246Z"></path><path transform="translate(3167,0)" d="M427 0 22 1118H390L557 571Q580 496 598.5 419.0Q617 342 635 261Q651 342 669.0 418.5Q687 495 710 571L874 1118H1238L831 0Z"></path><path transform="translate(4427,0)" d="M636 -21Q373 -21 222.5 132.5Q72 286 72 555Q72 727 139.5 857.0Q207 987 331.0 1059.5Q455 1132 623 1132Q780 1132 901.5 1066.5Q1023 1001 1092.5 873.5Q1162 746 1162 562V474H415Q420 353 481.5 292.5Q543 232 642 232Q712 232 763.0 261.5Q814 291 835 347L1146 296Q1104 151 971.5 65.0Q839 -21 636 -21ZM417 677H831Q821 772 769.0 825.5Q717 879 626 879Q534 879 480.5 824.5Q427 770 417 677Z"></path><path transform="translate(5657,0)" d="M341 0 15 1118H380L462 735Q481 640 503.0 534.0Q525 428 546 307Q568 427 593.0 533.5Q618 640 640 735L729 1118H1039L1125 735Q1146 639 1171.0 533.0Q1196 427 1219 305Q1238 426 1259.0 532.5Q1280 639 1300 735L1381 1118H1752L1423 0H1067L951 401Q934 462 916.5 545.5Q899 629 882 710Q865 629 848.0 545.5Q831 462 813 401L697 0Z"></path><path transform="translate(7424,0)" d="M636 -21Q373 -21 222.5 132.5Q72 286 72 555Q72 727 139.5 857.0Q207 987 331.0 1059.5Q455 1132 623 1132Q780 1132 901.5 1066.5Q1023 1001 1092.5 873.5Q1162 746 1162 562V474H415Q420 353 481.5 292.5Q543 232 642 232Q712 232 763.0 261.5Q814 291 835 347L1146 296Q1104 151 971.5 65.0Q839 -21 636 -21ZM417 677H831Q821 772 769.0 825.5Q717 879 626 879Q534 879 480.5 824.5Q427 770 417 677Z"></path><path transform="translate(8654,0)" d="M464 1490V0H115V1490Z"></path><path transform="translate(9234,0)" d="M464 1490V0H115V1490Z"></path></g>
</svg>